HIERARCHY
ROOT joint_Root
{
	OFFSET 0.0 0.0 0.0
	CHANNELS 6 Xposition Yposition Zposition Zrotation Xrotation Yrotation 
	JOINT Hips
	{
		OFFSET -0.726466 93.3139 -2.00062
		CHANNELS 6 Xposition Yposition Zposition Zrotation Xrotation Yrotation 
		JOINT Spine
		{
			OFFSET 15.7357 0.0 0.0
			CHANNELS 6 Xposition Yposition Zposition Zrotation Xrotation Yrotation 
			JOINT Chest
			{
				OFFSET 8.98455 -0.406207 0.0
				CHANNELS 6 Xposition Yposition Zposition Zrotation Xrotation Yrotation 
				JOINT Neck
				{
					OFFSET 16.3773 0.0 0.0
					CHANNELS 6 Xposition Yposition Zposition Zrotation Xrotation Yrotation 
					JOINT Head
					{
						OFFSET 6.45672 0.0 0.0
						CHANNELS 6 Xposition Yposition Zposition Zrotation Xrotation Yrotation 
						End Site
						{
							OFFSET 0.0 0.0 0.0
						}
					}
				}
				JOINT Shoulder_L
				{
					OFFSET 12.9942 -0.242716 4.98039
					CHANNELS 6 Xposition Yposition Zposition Zrotation Xrotation Yrotation 
					JOINT UpperArm_L
					{
						OFFSET 5.34809 0.0 0.0
						CHANNELS 6 Xposition Yposition Zposition Zrotation Xrotation Yrotation 
						JOINT LowerArm_L
						{
							OFFSET 24.3286 1.87007e-05 0.0
							CHANNELS 6 Xposition Yposition Zposition Zrotation Xrotation Yrotation 
							JOINT Hand_L
							{
								OFFSET 22.2916 0.0 0.0
								CHANNELS 6 Xposition Yposition Zposition Zrotation Xrotation Yrotation 
								End Site
								{
									OFFSET 0.0 0.0 0.0
								}
							}
						}
					}
				}
				JOINT Shoulder_R
				{
					OFFSET 12.9945 -0.242716 -4.98039
					CHANNELS 6 Xposition Yposition Zposition Zrotation Xrotation Yrotation 
					JOINT UpperArm_R
					{
						OFFSET -5.34813 0.0 0.0
						CHANNELS 6 Xposition Yposition Zposition Zrotation Xrotation Yrotation 
						JOINT LowerArm_R
						{
							OFFSET -24.3289 0.000322201 0.0
							CHANNELS 6 Xposition Yposition Zposition Zrotation Xrotation Yrotation 
							JOINT Hand_R
							{
								OFFSET -22.2915 -0.000108084 0.0
								CHANNELS 6 Xposition Yposition Zposition Zrotation Xrotation Yrotation 
								End Site
								{
									OFFSET 0.0 0.0 0.0
								}
							}
						}
					}
				}
			}
		}
		JOINT UpperLeg_L
		{
			OFFSET -2.19248 -6.46944 0.0
			CHANNELS 6 Xposition Yposition Zposition Zrotation Xrotation Yrotation 
			JOINT LowerLeg_L
			{
				OFFSET 39.0811 0.0 -1.23785e-05
				CHANNELS 6 Xposition Yposition Zposition Zrotation Xrotation Yrotation 
				JOINT Foot_L
				{
					OFFSET 40.9854 0.0 -1.26872e-05
					CHANNELS 6 Xposition Yposition Zposition Zrotation Xrotation Yrotation 
					JOINT Toes_L
					{
						OFFSET 11.7543 0.0 0.0
						CHANNELS 6 Xposition Yposition Zposition Zrotation Xrotation Yrotation 
						End Site
						{
							OFFSET 0.0 0.0 0.0
						}
					}
				}
			}
		}
		JOINT UpperLeg_R
		{
			OFFSET -2.19251 6.46944 0.0
			CHANNELS 6 Xposition Yposition Zposition Zrotation Xrotation Yrotation 
			JOINT LowerLeg_R
			{
				OFFSET -39.0811 -0.00228153 -0.0401928
				CHANNELS 6 Xposition Yposition Zposition Zrotation Xrotation Yrotation 
				JOINT Foot_R
				{
					OFFSET -40.9854 0.0 0.0
					CHANNELS 6 Xposition Yposition Zposition Zrotation Xrotation Yrotation 
					JOINT Toes_R
					{
						OFFSET -11.7543 0.0 0.0
						CHANNELS 6 Xposition Yposition Zposition Zrotation Xrotation Yrotation 
						End Site
						{
							OFFSET 0.0 0.0 0.0
						}
					}
				}
			}
		}
	}
}
MOTION
Frames:	4
Frame Time:	0.0333333
0.000000 0.000000 0.000000 0.000000 0.000000 -0.000000 141.396000 92.060100 -132.387000 83.027500 0.919749 -0.563831 15.735700 0.000005 -0.000001 72.590200 81.223400 -71.017100 8.984550 -0.406207 -0.000000 9.084760 -5.206210 3.559160 16.377300 -0.000001 -0.000001 5.294510 -2.148960 0.966424 6.456720 -0.000001 -0.000000 0.034761 2.736820 0.532124 12.994200 -0.242716 4.980390 -88.636400 -4.139600 -71.749400 5.348090 -0.000007 -0.000001 -44.466700 23.540800 -30.304200 24.328600 0.000019 0.000005 3.207310 2.266150 -54.785300 22.291600 -0.000001 0.000005 7.060220 5.574730 -9.932980 12.994500 -0.242716 -4.980390 88.709900 2.594300 -63.547900 -5.348130 -0.000001 -0.000004 -56.541000 32.310400 -4.006580 -24.328900 0.000322 -0.000009 3.361130 3.889500 -40.896000 -22.291500 -0.000108 -0.000004 4.605240 5.543040 -8.382200 -2.192480 -6.469440 -0.000000 -173.653000 -11.630000 -1.482390 39.081100 -0.000007 -0.000012 -0.006143 0.013987 23.712600 40.985400 -0.000006 -0.000013 5.121570 6.105990 -73.059000 11.754300 -0.000000 0.000003 0.000661 0.011989 -16.090700 -2.192510 6.469440 -0.000001 -174.628000 18.400200 155.151000 -39.081100 -0.002282 -0.040193 0.050699 -0.057525 39.499600 -40.985400 0.000008 0.000006 -1.358490 -3.536700 -56.777800 -11.754300 -0.000006 -0.000006 -0.020462 -0.169832 -23.512700
0.000000 0.000000 0.000000 0.000000 0.000000 -0.000000 141.485000 91.758800 -129.911000 83.351200 2.259630 -1.197230 15.735700 0.000005 -0.000001 69.964300 81.045100 -68.201400 8.984550 -0.406207 -0.000000 9.194820 -6.081100 4.014860 16.377300 -0.000001 -0.000001 5.163060 -2.363410 1.043470 6.456720 -0.000001 -0.000000 -0.348806 3.039560 0.185568 12.994200 -0.242716 4.980390 -88.593700 -4.326360 -71.973900 5.348090 -0.000007 -0.000001 -42.792800 20.701300 -32.070300 24.328600 0.000019 0.000005 3.655360 2.327630 -57.555700 22.291600 -0.000001 0.000005 7.524970 5.570930 -9.736470 12.994500 -0.242716 -4.980390 88.704700 2.506660 -62.660900 -5.348130 -0.000001 -0.000004 -57.119600 31.184900 -2.047400 -24.328900 0.000322 -0.000009 3.591120 4.187540 -40.686700 -22.291500 -0.000108 -0.000004 4.636210 5.539450 -8.218570 -2.192480 -6.469440 -0.000000 -173.688000 -10.893700 0.177703 39.081100 -0.000007 -0.000012 -0.010548 0.025686 22.324500 40.985400 -0.000006 -0.000013 5.108850 6.696230 -73.816200 11.754300 -0.000000 0.000003 0.000536 0.009562 -16.189200 -2.192510 6.469440 -0.000001 -172.830000 18.921600 153.110000 -39.081100 -0.002282 -0.040193 0.024277 -0.035952 30.260800 -40.985400 0.000008 0.000006 -1.668680 -2.464260 -55.460100 -11.754300 -0.000006 -0.000006 -0.021419 -0.175026 -23.726800
0.000000 0.000000 0.000000 0.000000 0.000000 -0.000000 141.561000 91.166500 -127.267000 83.929700 3.466470 -1.764430 15.735700 0.000005 -0.000001 68.157900 80.827400 -66.290900 8.984550 -0.406207 -0.000000 9.424340 -6.760170 4.292190 16.377300 -0.000001 -0.000001 4.979910 -2.545110 1.146900 6.456720 -0.000001 -0.000000 -0.724933 3.161160 -0.093435 12.994200 -0.242716 4.980390 -88.585800 -4.385460 -72.107000 5.348090 -0.000007 -0.000001 -41.378900 18.046600 -33.526600 24.328600 0.000019 0.000005 3.224590 1.866610 -59.969100 22.291600 -0.000001 0.000005 8.139680 5.577670 -10.087400 12.994500 -0.242716 -4.980390 88.668300 2.507070 -62.011900 -5.348130 -0.000001 -0.000004 -57.676900 29.754400 -0.177008 -24.328900 0.000322 -0.000009 3.643640 4.242160 -40.732700 -22.291500 -0.000108 -0.000004 4.623790 5.537280 -8.119650 -2.192480 -6.469440 -0.000000 -174.018000 -9.716400 1.625670 39.081100 -0.000007 -0.000012 -0.015098 0.037771 21.787500 40.985400 -0.000006 -0.000013 5.084170 6.648750 -75.023600 11.754300 -0.000000 0.000003 0.000581 0.010427 -16.154100 -2.192510 6.469440 -0.000001 -171.321000 19.506900 151.376000 -39.081100 -0.002282 -0.040193 0.011197 -0.020364 21.148200 -40.985400 0.000008 0.000006 -2.294660 -1.517760 -52.934700 -11.754300 -0.000006 -0.000006 -0.021366 -0.174739 -23.714900
0.000000 0.000000 0.000000 0.000000 0.000000 -0.000000 141.569000 90.353700 -124.381000 84.562000 4.467930 -2.369910 15.735700 0.000005 -0.000001 67.194700 80.657700 -65.221400 8.984550 -0.406207 -0.000000 9.641040 -7.167840 4.552960 16.377300 -0.000001 -0.000001 4.816990 -2.762440 1.292200 6.456720 -0.000001 -0.000000 -1.125450 3.144880 -0.430813 12.994200 -0.242716 4.980390 -88.596300 -4.380080 -72.211500 5.348090 -0.000007 -0.000001 -40.631700 15.802400 -34.472100 24.328600 0.000019 0.000005 2.530540 1.340620 -62.106500 22.291600 -0.000001 0.000005 8.865840 5.581370 -10.284500 12.994500 -0.242716 -4.980390 88.645300 2.500150 -61.537300 -5.348130 -0.000001 -0.000004 -58.234700 28.351200 1.443350 -24.328900 0.000322 -0.000009 3.654420 4.259880 -40.698600 -22.291500 -0.000108 -0.000004 4.847580 5.537910 -8.147080 -2.192480 -6.469440 -0.000000 -174.121000 -9.216520 2.998180 39.081100 -0.000007 -0.000012 -0.021239 0.052933 21.862800 40.985400 -0.000006 -0.000013 4.992400 7.260290 -76.547900 11.754300 -0.000000 0.000003 0.000167 0.002853 -16.461600 -2.192510 6.469440 -0.000001 -169.368000 20.926200 149.527000 -39.081100 -0.002282 -0.040193 0.006964 -0.015492 13.190900 -40.985400 0.000008 0.000006 -4.063110 -0.981339 -50.639200 -11.754300 -0.000006 -0.000006 -0.022066 -0.178476 -23.869100
